<?xml version="1.0" standalone="no"?>
<!DOCTYPE svg PUBLIC "-//W3C//DTD SVG 20010904//EN"
 "http://www.w3.org/TR/2001/REC-SVG-20010904/DTD/svg10.dtd">
<svg version="1.0" xmlns="http://www.w3.org/2000/svg"
 width="400.000000pt" height="630.000000pt" viewBox="0 0 400.000000 630.000000"
 preserveAspectRatio="xMidYMid meet">
<metadata>
Created by potrace 1.16, written by Peter Selinger 2001-2019
</metadata>
<g transform="translate(0.000000,630.000000) scale(0.100000,-0.100000)"
fill="#000000" stroke="none">
<path d="M1965 5670 c-16 -4 -51 -8 -76 -9 -54 -1 -164 -33 -229 -66 -70 -36
-199 -139 -259 -207 -76 -88 -153 -209 -242 -383 -133 -259 -170 -404 -169
-662 0 -145 -12 -246 -39 -316 -13 -32 -5 -34 25 -6 l22 20 39 -73 c22 -40 46
-94 53 -120 13 -48 36 -70 24 -23 -8 33 0 32 52 -11 49 -41 54 -38 23 13 -25
40 -20 56 6 17 9 -14 42 -53 72 -87 55 -59 62 -58 37 8 -6 15 -4 16 14 6 11
-6 38 -48 61 -93 l40 -83 1 69 0 69 26 -24 c14 -13 40 -48 57 -78 28 -49 31
-52 44 -35 7 10 13 26 13 36 0 27 12 22 44 -17 16 -19 33 -35 37 -35 5 0 6 24
3 53 -5 48 -4 50 10 33 24 -29 31 -104 14 -135 -10 -17 -16 -54 -16 -106 l0
-80 -42 -37 c-51 -46 -172 -108 -210 -108 -15 0 -35 9 -45 20 -23 26 -59 25
-101 0 -18 -12 -71 -36 -118 -54 -155 -61 -208 -105 -254 -206 -11 -25 -50
-108 -85 -185 -87 -188 -167 -453 -167 -555 0 -86 130 -278 220 -325 19 -10
30 -23 30 -36 0 -12 13 -38 29 -58 28 -35 31 -47 46 -197 33 -324 38 -415 39
-689 l1 -280 890 0 890 0 -2 25 c-9 84 -6 258 4 274 10 19 11 19 21 -1 6 -11
35 -36 64 -54 47 -30 60 -34 124 -34 103 0 149 31 220 149 97 160 119 295 99
585 -5 70 -4 92 5 86 6 -4 16 -19 22 -33 6 -15 12 -22 15 -16 2 7 -7 40 -22
75 -26 66 -32 109 -14 109 16 0 51 -20 77 -43 12 -11 22 -17 22 -12 0 5 11 -2
25 -15 14 -13 25 -19 25 -14 0 14 -129 174 -140 174 -11 0 -14 33 -4 42 3 4
19 2 35 -2 34 -10 37 -1 9 25 -14 13 -17 22 -10 29 5 5 10 17 10 26 0 9 22 59
49 112 67 129 85 193 79 282 -5 63 -13 87 -72 206 -37 74 -76 152 -87 172 -11
21 -31 77 -45 125 -36 124 -74 199 -138 269 -74 83 -127 105 -271 114 -60 5
-125 14 -143 20 -26 10 -40 10 -59 1 -14 -7 -27 -10 -28 -9 -1 2 -15 28 -30
58 -15 30 -45 83 -65 117 l-38 61 29 28 c29 28 34 25 29 -19 -1 -16 1 -17 22
-6 47 27 92 39 99 27 5 -7 9 -4 12 8 2 10 2 -2 0 -28 -6 -57 5 -61 31 -13 12
22 27 35 39 35 13 0 17 -5 13 -15 -4 -12 -2 -13 15 -2 11 6 50 57 87 112 58
88 153 204 175 213 4 2 4 -15 1 -39 -11 -64 10 -41 37 43 22 66 24 90 24 248
-1 178 -4 208 -56 480 -43 224 -58 284 -96 385 -68 180 -171 338 -275 421
-173 140 -280 194 -419 214 -36 5 -85 18 -110 30 -46 20 -143 25 -204 10z
m-879 -962 c-14 -50 -66 -304 -66 -325 0 -13 -4 -23 -9 -23 -11 0 -3 88 15
170 20 88 54 200 61 200 3 0 2 -10 -1 -22z m1958 -765 c-9 -35 -44 -106 -50
-101 -2 3 3 22 12 44 9 21 20 49 25 62 12 31 21 28 13 -5z m-524 -288 c0 -2
-5 -27 -11 -55 -12 -55 -28 -61 -43 -17 -8 22 -6 31 14 52 21 23 40 32 40 20z
m86 -57 c-18 -26 -22 -17 -5 14 6 11 13 17 16 15 3 -3 -2 -16 -11 -29z"/>
</g>
</svg>
