<?xml version="1.0" encoding="utf-8"?>
<!DOCTYPE svg PUBLIC "-//W3C//DTD SVG 20010904//EN" "http://www.w3.org/TR/2001/REC-SVG-20010904/DTD/svg10.dtd">
<svg height="630.000000pt" preserveAspectRatio="xMidYMid meet" version="1.0" viewBox="0 0 400.000000 630.000000" width="400.000000pt" xmlns="http://www.w3.org/2000/svg">
<metadata>
Created by potrace 1.16, written by Peter Selinger 2001-2019
</metadata>
<g fill="none" stroke="black" transform="translate(0.000000,630.000000) scale(0.100000,-0.100000)">

<path d="M2744 6021 c-60 -15 -124 -53 -158 -92 -35 -42 -80 -144 -70 -161 4 -6 -1 -6 -12 0 -11 6 -55 18 -99 27 -44 9 -109 25 -145 35 -132 40 -158 42 -314 26 -228 -24 -315 -52 -455 -143 -103 -67 -266 -227 -338 -333 -71 -104 -206 -359 -247 -466 -74 -191 -112 -404 -103 -574 6 -115 -7 -201 -38 -260 -13 -24 -19 -56 -20 -100 0 -89 22 -126 98 -163 54 -26 61 -34 86 -90 34 -76 112 -153 162 -161 19 -3 51 -8 71 -11 42 -7 98 -54 98 -83 0 -38 -89 -92 -285 -173 -106 -44 -214 -148 -262 -254 -17 -39 -58 -128 -91 -200 -100 -218 -176 -494 -176 -635 1 -75 5 -94 34 -155 48 -103 93 -169 174 -254 117 -123 103 -73 141 -525 8 -99 17 -193 21 -209 3 -15 1 -115 -6 -222 -14 -231 -7 -290 44 -341 18 -18 50 -37 71 -43 49 -14 1860 -15 1919 -2 50 12 94 55 108 106 15 54 46 81 104 90 61 9 158 52 203 91 40 33 119 151 161 238 38 81 80 309 80 435 0 62 3 74 23 91 85 74 106 98 117 140 15 56 7 107 -29 178 -18 36 -31 82 -35 123 -7 63 -5 71 28 138 39 77 76 211 76 278 0 88 -29 178 -116 358 -47 99 -96 214 -109 256 -68 224 -180 375 -329 445 -88 40 -103 55 -90 91 7 20 22 30 62 43 82 27 103 54 156 192 41 111 56 208 56 367 0 171 -14 284 -70 573 -47 241 -92 390 -161 524 -46 91 -134 232 -154 246 -6 5 -3 8 6 8 23 0 96 66 127 114 22 35 27 55 30 132 5 105 -11 154 -72 222 -60 66 -187 105 -272 83z m114 -234 c15 -14 22 -32 22 -55 0 -47 -24 -72 -70 -72 -68 0 -107 74 -64 122 37 40 70 42 112 5z"/>
<path d="M2785 5800 c-76 -28 -57 -130 25 -130 46 0 60 14 60 60 0 52 -42 86 -85 70z"/>
</g>
</svg>